<?xml version="1.0" encoding="utf-8"?>
<svg xmlns="http://www.w3.org/2000/svg" xmlns:xlink="http://www.w3.org/1999/xlink" style="margin: auto; background: rgba(0, 0, 0, 0) none repeat scroll 0% 0%; display: block; shape-rendering: auto;" width="200px" height="200px" viewBox="0 0 100 100" preserveAspectRatio="xMidYMid">
<g transform="rotate(0 50 50)">
  <rect x="44" y="25" rx="6" ry="5" width="12" height="10" fill="#ffffff">
    <animate attributeName="opacity" values="1;0" keyTimes="0;1" dur="1.1111111111111112s" begin="-1.0874704491725766s" repeatCount="indefinite"></animate>
  </rect>
</g><g transform="rotate(7.659574468085107 50 50)">
  <rect x="44" y="25" rx="6" ry="5" width="12" height="10" fill="#ffffff">
    <animate attributeName="opacity" values="1;0" keyTimes="0;1" dur="1.1111111111111112s" begin="-1.0638297872340425s" repeatCount="indefinite"></animate>
  </rect>
</g><g transform="rotate(15.319148936170214 50 50)">
  <rect x="44" y="25" rx="6" ry="5" width="12" height="10" fill="#ffffff">
    <animate attributeName="opacity" values="1;0" keyTimes="0;1" dur="1.1111111111111112s" begin="-1.0401891252955082s" repeatCount="indefinite"></animate>
  </rect>
</g><g transform="rotate(22.97872340425532 50 50)">
  <rect x="44" y="25" rx="6" ry="5" width="12" height="10" fill="#ffffff">
    <animate attributeName="opacity" values="1;0" keyTimes="0;1" dur="1.1111111111111112s" begin="-1.016548463356974s" repeatCount="indefinite"></animate>
  </rect>
</g><g transform="rotate(30.638297872340427 50 50)">
  <rect x="44" y="25" rx="6" ry="5" width="12" height="10" fill="#ffffff">
    <animate attributeName="opacity" values="1;0" keyTimes="0;1" dur="1.1111111111111112s" begin="-0.9929078014184396s" repeatCount="indefinite"></animate>
  </rect>
</g><g transform="rotate(38.297872340425535 50 50)">
  <rect x="44" y="25" rx="6" ry="5" width="12" height="10" fill="#ffffff">
    <animate attributeName="opacity" values="1;0" keyTimes="0;1" dur="1.1111111111111112s" begin="-0.9692671394799054s" repeatCount="indefinite"></animate>
  </rect>
</g><g transform="rotate(45.95744680851064 50 50)">
  <rect x="44" y="25" rx="6" ry="5" width="12" height="10" fill="#ffffff">
    <animate attributeName="opacity" values="1;0" keyTimes="0;1" dur="1.1111111111111112s" begin="-0.9456264775413711s" repeatCount="indefinite"></animate>
  </rect>
</g><g transform="rotate(53.61702127659574 50 50)">
  <rect x="44" y="25" rx="6" ry="5" width="12" height="10" fill="#ffffff">
    <animate attributeName="opacity" values="1;0" keyTimes="0;1" dur="1.1111111111111112s" begin="-0.9219858156028368s" repeatCount="indefinite"></animate>
  </rect>
</g><g transform="rotate(61.276595744680854 50 50)">
  <rect x="44" y="25" rx="6" ry="5" width="12" height="10" fill="#ffffff">
    <animate attributeName="opacity" values="1;0" keyTimes="0;1" dur="1.1111111111111112s" begin="-0.8983451536643026s" repeatCount="indefinite"></animate>
  </rect>
</g><g transform="rotate(68.93617021276596 50 50)">
  <rect x="44" y="25" rx="6" ry="5" width="12" height="10" fill="#ffffff">
    <animate attributeName="opacity" values="1;0" keyTimes="0;1" dur="1.1111111111111112s" begin="-0.8747044917257683s" repeatCount="indefinite"></animate>
  </rect>
</g><g transform="rotate(76.59574468085107 50 50)">
  <rect x="44" y="25" rx="6" ry="5" width="12" height="10" fill="#ffffff">
    <animate attributeName="opacity" values="1;0" keyTimes="0;1" dur="1.1111111111111112s" begin="-0.8510638297872339s" repeatCount="indefinite"></animate>
  </rect>
</g><g transform="rotate(84.25531914893617 50 50)">
  <rect x="44" y="25" rx="6" ry="5" width="12" height="10" fill="#ffffff">
    <animate attributeName="opacity" values="1;0" keyTimes="0;1" dur="1.1111111111111112s" begin="-0.8274231678486996s" repeatCount="indefinite"></animate>
  </rect>
</g><g transform="rotate(91.91489361702128 50 50)">
  <rect x="44" y="25" rx="6" ry="5" width="12" height="10" fill="#ffffff">
    <animate attributeName="opacity" values="1;0" keyTimes="0;1" dur="1.1111111111111112s" begin="-0.8037825059101654s" repeatCount="indefinite"></animate>
  </rect>
</g><g transform="rotate(99.57446808510639 50 50)">
  <rect x="44" y="25" rx="6" ry="5" width="12" height="10" fill="#ffffff">
    <animate attributeName="opacity" values="1;0" keyTimes="0;1" dur="1.1111111111111112s" begin="-0.7801418439716311s" repeatCount="indefinite"></animate>
  </rect>
</g><g transform="rotate(107.23404255319149 50 50)">
  <rect x="44" y="25" rx="6" ry="5" width="12" height="10" fill="#ffffff">
    <animate attributeName="opacity" values="1;0" keyTimes="0;1" dur="1.1111111111111112s" begin="-0.7565011820330968s" repeatCount="indefinite"></animate>
  </rect>
</g><g transform="rotate(114.8936170212766 50 50)">
  <rect x="44" y="25" rx="6" ry="5" width="12" height="10" fill="#ffffff">
    <animate attributeName="opacity" values="1;0" keyTimes="0;1" dur="1.1111111111111112s" begin="-0.7328605200945626s" repeatCount="indefinite"></animate>
  </rect>
</g><g transform="rotate(122.55319148936171 50 50)">
  <rect x="44" y="25" rx="6" ry="5" width="12" height="10" fill="#ffffff">
    <animate attributeName="opacity" values="1;0" keyTimes="0;1" dur="1.1111111111111112s" begin="-0.7092198581560283s" repeatCount="indefinite"></animate>
  </rect>
</g><g transform="rotate(130.2127659574468 50 50)">
  <rect x="44" y="25" rx="6" ry="5" width="12" height="10" fill="#ffffff">
    <animate attributeName="opacity" values="1;0" keyTimes="0;1" dur="1.1111111111111112s" begin="-0.685579196217494s" repeatCount="indefinite"></animate>
  </rect>
</g><g transform="rotate(137.87234042553192 50 50)">
  <rect x="44" y="25" rx="6" ry="5" width="12" height="10" fill="#ffffff">
    <animate attributeName="opacity" values="1;0" keyTimes="0;1" dur="1.1111111111111112s" begin="-0.6619385342789598s" repeatCount="indefinite"></animate>
  </rect>
</g><g transform="rotate(145.53191489361703 50 50)">
  <rect x="44" y="25" rx="6" ry="5" width="12" height="10" fill="#ffffff">
    <animate attributeName="opacity" values="1;0" keyTimes="0;1" dur="1.1111111111111112s" begin="-0.6382978723404255s" repeatCount="indefinite"></animate>
  </rect>
</g><g transform="rotate(153.19148936170214 50 50)">
  <rect x="44" y="25" rx="6" ry="5" width="12" height="10" fill="#ffffff">
    <animate attributeName="opacity" values="1;0" keyTimes="0;1" dur="1.1111111111111112s" begin="-0.6146572104018911s" repeatCount="indefinite"></animate>
  </rect>
</g><g transform="rotate(160.85106382978722 50 50)">
  <rect x="44" y="25" rx="6" ry="5" width="12" height="10" fill="#ffffff">
    <animate attributeName="opacity" values="1;0" keyTimes="0;1" dur="1.1111111111111112s" begin="-0.5910165484633569s" repeatCount="indefinite"></animate>
  </rect>
</g><g transform="rotate(168.51063829787233 50 50)">
  <rect x="44" y="25" rx="6" ry="5" width="12" height="10" fill="#ffffff">
    <animate attributeName="opacity" values="1;0" keyTimes="0;1" dur="1.1111111111111112s" begin="-0.5673758865248226s" repeatCount="indefinite"></animate>
  </rect>
</g><g transform="rotate(176.17021276595744 50 50)">
  <rect x="44" y="25" rx="6" ry="5" width="12" height="10" fill="#ffffff">
    <animate attributeName="opacity" values="1;0" keyTimes="0;1" dur="1.1111111111111112s" begin="-0.5437352245862883s" repeatCount="indefinite"></animate>
  </rect>
</g><g transform="rotate(183.82978723404256 50 50)">
  <rect x="44" y="25" rx="6" ry="5" width="12" height="10" fill="#ffffff">
    <animate attributeName="opacity" values="1;0" keyTimes="0;1" dur="1.1111111111111112s" begin="-0.5200945626477541s" repeatCount="indefinite"></animate>
  </rect>
</g><g transform="rotate(191.48936170212767 50 50)">
  <rect x="44" y="25" rx="6" ry="5" width="12" height="10" fill="#ffffff">
    <animate attributeName="opacity" values="1;0" keyTimes="0;1" dur="1.1111111111111112s" begin="-0.4964539007092198s" repeatCount="indefinite"></animate>
  </rect>
</g><g transform="rotate(199.14893617021278 50 50)">
  <rect x="44" y="25" rx="6" ry="5" width="12" height="10" fill="#ffffff">
    <animate attributeName="opacity" values="1;0" keyTimes="0;1" dur="1.1111111111111112s" begin="-0.47281323877068554s" repeatCount="indefinite"></animate>
  </rect>
</g><g transform="rotate(206.80851063829786 50 50)">
  <rect x="44" y="25" rx="6" ry="5" width="12" height="10" fill="#ffffff">
    <animate attributeName="opacity" values="1;0" keyTimes="0;1" dur="1.1111111111111112s" begin="-0.4491725768321513s" repeatCount="indefinite"></animate>
  </rect>
</g><g transform="rotate(214.46808510638297 50 50)">
  <rect x="44" y="25" rx="6" ry="5" width="12" height="10" fill="#ffffff">
    <animate attributeName="opacity" values="1;0" keyTimes="0;1" dur="1.1111111111111112s" begin="-0.42553191489361697s" repeatCount="indefinite"></animate>
  </rect>
</g><g transform="rotate(222.12765957446808 50 50)">
  <rect x="44" y="25" rx="6" ry="5" width="12" height="10" fill="#ffffff">
    <animate attributeName="opacity" values="1;0" keyTimes="0;1" dur="1.1111111111111112s" begin="-0.4018912529550827s" repeatCount="indefinite"></animate>
  </rect>
</g><g transform="rotate(229.7872340425532 50 50)">
  <rect x="44" y="25" rx="6" ry="5" width="12" height="10" fill="#ffffff">
    <animate attributeName="opacity" values="1;0" keyTimes="0;1" dur="1.1111111111111112s" begin="-0.3782505910165484s" repeatCount="indefinite"></animate>
  </rect>
</g><g transform="rotate(237.4468085106383 50 50)">
  <rect x="44" y="25" rx="6" ry="5" width="12" height="10" fill="#ffffff">
    <animate attributeName="opacity" values="1;0" keyTimes="0;1" dur="1.1111111111111112s" begin="-0.35460992907801414s" repeatCount="indefinite"></animate>
  </rect>
</g><g transform="rotate(245.10638297872342 50 50)">
  <rect x="44" y="25" rx="6" ry="5" width="12" height="10" fill="#ffffff">
    <animate attributeName="opacity" values="1;0" keyTimes="0;1" dur="1.1111111111111112s" begin="-0.3309692671394799s" repeatCount="indefinite"></animate>
  </rect>
</g><g transform="rotate(252.7659574468085 50 50)">
  <rect x="44" y="25" rx="6" ry="5" width="12" height="10" fill="#ffffff">
    <animate attributeName="opacity" values="1;0" keyTimes="0;1" dur="1.1111111111111112s" begin="-0.30732860520094557s" repeatCount="indefinite"></animate>
  </rect>
</g><g transform="rotate(260.4255319148936 50 50)">
  <rect x="44" y="25" rx="6" ry="5" width="12" height="10" fill="#ffffff">
    <animate attributeName="opacity" values="1;0" keyTimes="0;1" dur="1.1111111111111112s" begin="-0.2836879432624113s" repeatCount="indefinite"></animate>
  </rect>
</g><g transform="rotate(268.0851063829787 50 50)">
  <rect x="44" y="25" rx="6" ry="5" width="12" height="10" fill="#ffffff">
    <animate attributeName="opacity" values="1;0" keyTimes="0;1" dur="1.1111111111111112s" begin="-0.26004728132387706s" repeatCount="indefinite"></animate>
  </rect>
</g><g transform="rotate(275.74468085106383 50 50)">
  <rect x="44" y="25" rx="6" ry="5" width="12" height="10" fill="#ffffff">
    <animate attributeName="opacity" values="1;0" keyTimes="0;1" dur="1.1111111111111112s" begin="-0.23640661938534277s" repeatCount="indefinite"></animate>
  </rect>
</g><g transform="rotate(283.40425531914894 50 50)">
  <rect x="44" y="25" rx="6" ry="5" width="12" height="10" fill="#ffffff">
    <animate attributeName="opacity" values="1;0" keyTimes="0;1" dur="1.1111111111111112s" begin="-0.21276595744680848s" repeatCount="indefinite"></animate>
  </rect>
</g><g transform="rotate(291.06382978723406 50 50)">
  <rect x="44" y="25" rx="6" ry="5" width="12" height="10" fill="#ffffff">
    <animate attributeName="opacity" values="1;0" keyTimes="0;1" dur="1.1111111111111112s" begin="-0.1891252955082742s" repeatCount="indefinite"></animate>
  </rect>
</g><g transform="rotate(298.72340425531917 50 50)">
  <rect x="44" y="25" rx="6" ry="5" width="12" height="10" fill="#ffffff">
    <animate attributeName="opacity" values="1;0" keyTimes="0;1" dur="1.1111111111111112s" begin="-0.16548463356973994s" repeatCount="indefinite"></animate>
  </rect>
</g><g transform="rotate(306.3829787234043 50 50)">
  <rect x="44" y="25" rx="6" ry="5" width="12" height="10" fill="#ffffff">
    <animate attributeName="opacity" values="1;0" keyTimes="0;1" dur="1.1111111111111112s" begin="-0.14184397163120566s" repeatCount="indefinite"></animate>
  </rect>
</g><g transform="rotate(314.0425531914894 50 50)">
  <rect x="44" y="25" rx="6" ry="5" width="12" height="10" fill="#ffffff">
    <animate attributeName="opacity" values="1;0" keyTimes="0;1" dur="1.1111111111111112s" begin="-0.11820330969267138s" repeatCount="indefinite"></animate>
  </rect>
</g><g transform="rotate(321.70212765957444 50 50)">
  <rect x="44" y="25" rx="6" ry="5" width="12" height="10" fill="#ffffff">
    <animate attributeName="opacity" values="1;0" keyTimes="0;1" dur="1.1111111111111112s" begin="-0.0945626477541371s" repeatCount="indefinite"></animate>
  </rect>
</g><g transform="rotate(329.36170212765956 50 50)">
  <rect x="44" y="25" rx="6" ry="5" width="12" height="10" fill="#ffffff">
    <animate attributeName="opacity" values="1;0" keyTimes="0;1" dur="1.1111111111111112s" begin="-0.07092198581560283s" repeatCount="indefinite"></animate>
  </rect>
</g><g transform="rotate(337.02127659574467 50 50)">
  <rect x="44" y="25" rx="6" ry="5" width="12" height="10" fill="#ffffff">
    <animate attributeName="opacity" values="1;0" keyTimes="0;1" dur="1.1111111111111112s" begin="-0.04728132387706855s" repeatCount="indefinite"></animate>
  </rect>
</g><g transform="rotate(344.6808510638298 50 50)">
  <rect x="44" y="25" rx="6" ry="5" width="12" height="10" fill="#ffffff">
    <animate attributeName="opacity" values="1;0" keyTimes="0;1" dur="1.1111111111111112s" begin="-0.023640661938534275s" repeatCount="indefinite"></animate>
  </rect>
</g><g transform="rotate(352.3404255319149 50 50)">
  <rect x="44" y="25" rx="6" ry="5" width="12" height="10" fill="#ffffff">
    <animate attributeName="opacity" values="1;0" keyTimes="0;1" dur="1.1111111111111112s" begin="0s" repeatCount="indefinite"></animate>
  </rect>
</g>
<!-- [ldio] generated by https://loading.io/ --></svg>